<?xml version="1.0" standalone="no"?>
<!DOCTYPE svg PUBLIC "-//W3C//DTD SVG 20010904//EN"
 "http://www.w3.org/TR/2001/REC-SVG-20010904/DTD/svg10.dtd">
<svg version="1.0" xmlns="http://www.w3.org/2000/svg"
 width="320.000000pt" height="240.000000pt" viewBox="0 0 320.000000 240.000000"
 preserveAspectRatio="xMidYMid meet">
<metadata>
Created by potrace 1.15, written by Peter Selinger 2001-2017
</metadata>
<g transform="translate(0.000000,240.000000) scale(0.100000,-0.100000)"
fill="#000000" stroke="none">
<path d="M1385 2386 c-16 -8 -49 -32 -73 -55 -37 -34 -43 -45 -40 -73 4 -41
-19 -48 -59 -19 -15 12 -82 35 -148 51 -66 17 -124 35 -129 41 -22 21 -86 8
-166 -33 -86 -44 -87 -45 -115 -125 l-19 -52 33 -53 33 -52 -74 -72 c-52 -51
-85 -75 -113 -83 -55 -14 -82 -35 -105 -80 -47 -94 -93 -339 -88 -468 l3 -73
65 -59 c36 -33 104 -85 152 -118 48 -32 90 -67 94 -78 4 -11 29 -50 56 -87
l49 -67 -39 -53 c-51 -68 -62 -90 -70 -140 -6 -35 -12 -43 -36 -49 -37 -10
-46 -24 -46 -76 0 -24 -11 -72 -25 -109 -32 -86 -33 -146 -3 -166 40 -25 383
-48 467 -32 25 5 30 10 25 23 -4 9 -6 29 -5 45 2 37 -38 81 -96 107 -24 10
-43 23 -43 29 0 5 21 37 47 71 39 50 49 57 54 42 36 -97 64 -170 71 -179 4 -6
3 -47 -4 -92 -10 -71 -9 -84 6 -106 9 -15 23 -26 31 -26 10 0 15 -15 17 -47
l3 -48 165 1 c103 0 176 5 194 13 27 11 28 13 12 30 -19 21 -20 41 -5 75 16
34 -5 64 -67 96 -110 56 -118 62 -99 76 17 12 17 22 0 201 -9 103 -21 213 -27
243 -5 30 -13 116 -17 190 -8 159 -27 208 -95 242 l-39 20 29 17 c16 10 38 28
48 40 25 28 30 27 44 -11 7 -18 34 -59 62 -91 27 -32 50 -62 50 -67 0 -17 155
-63 213 -63 51 -1 58 -3 63 -23 3 -13 3 -28 -1 -34 -6 -10 4 -52 27 -113 13
-34 95 -78 180 -98 l57 -13 177 -241 c98 -132 218 -295 268 -363 105 -142 105
-142 267 -142 119 0 255 28 277 58 13 16 12 105 -1 118 -3 3 -18 -1 -34 -10
-73 -37 -180 -68 -243 -69 -54 -1 -74 4 -120 28 -51 28 -74 55 -318 379 -253
337 -261 349 -240 361 17 8 22 18 20 41 -5 52 -32 110 -62 133 -17 12 -30 28
-30 35 0 7 -15 30 -33 50 -26 28 -41 36 -68 36 -50 0 -110 57 -147 141 -17 37
-42 78 -57 92 -26 23 -28 32 -29 104 -1 64 2 80 16 91 36 27 14 212 -32 267
-9 11 -7 17 9 27 12 7 21 18 21 23 0 15 63 75 78 75 8 0 12 17 12 48 0 56 11
76 41 77 18 0 26 9 35 42 8 26 9 45 3 48 -5 4 -9 19 -9 36 0 36 -57 96 -123
128 -59 28 -142 36 -182 17z m179 -28 c56 -28 112 -100 116 -148 6 -69 -7 -88
-49 -70 -39 16 -53 6 -87 -62 -14 -27 -32 -52 -40 -55 -12 -4 -15 -20 -13 -66
2 -40 -1 -62 -9 -65 -8 -2 -12 14 -12 56 0 53 -3 60 -24 70 -18 8 -30 27 -43
68 -16 52 -22 59 -63 77 -67 29 -74 37 -50 54 15 10 25 11 40 3 33 -18 24 9
-10 28 -16 9 -30 19 -30 22 0 3 23 29 50 59 l51 54 76 -7 c42 -4 86 -12 97
-18z m-812 -122 c-3 -30 4 -45 54 -108 32 -40 86 -103 121 -139 l63 -65 -88 4
-87 4 -65 71 c-36 38 -73 82 -83 97 -17 26 -16 29 7 83 21 47 56 87 76 87 3 0
4 -15 2 -34z m337 -57 c50 -31 97 -52 119 -55 26 -2 45 -12 65 -34 31 -35 37
-66 10 -55 -38 14 -74 17 -87 6 -10 -9 -28 -1 -80 34 -36 25 -80 48 -97 52
-21 4 -38 18 -55 45 -48 76 8 79 125 7z m-318 -228 l47 -50 56 6 c38 4 71 0
107 -11 32 -11 65 -15 85 -11 29 5 35 2 49 -24 24 -48 17 -79 -12 -50 -27 27
-74 -46 -63 -97 5 -20 10 -38 13 -40 15 -16 193 -94 208 -92 14 2 66 -61 204
-247 101 -137 185 -253 185 -256 0 -7 -71 -29 -94 -29 -9 0 -57 14 -105 31
-81 28 -91 35 -120 77 -18 26 -43 62 -57 81 -31 44 -30 75 4 120 52 66 73 101
64 101 -6 0 -42 -40 -81 -90 -75 -95 -139 -145 -172 -135 -11 4 -37 31 -60 61
-46 63 -65 77 -140 103 -30 10 -74 28 -97 40 -91 46 -255 210 -319 319 -24 41
-25 44 -8 62 18 20 41 28 30 11 -3 -5 -1 -12 3 -15 5 -3 55 37 111 89 57 52
105 95 109 95 3 0 27 -22 53 -49z m669 -61 c6 -11 17 -20 25 -20 26 0 51 -66
65 -175 7 -58 7 -61 -23 -86 -26 -22 -28 -28 -18 -47 6 -12 10 -49 9 -83 -2
-55 0 -64 24 -83 25 -20 63 -84 56 -92 -3 -3 -227 294 -250 332 -5 7 1 32 12
56 11 23 20 60 20 80 0 28 5 38 20 43 11 3 20 10 20 14 0 5 -9 20 -20 34 -24
31 -25 34 -2 40 36 10 52 6 62 -13z m-1009 -274 c24 -14 77 -34 117 -45 75
-21 110 -40 152 -86 22 -25 23 -27 5 -22 -11 3 -57 15 -103 27 -85 21 -194 56
-224 71 -14 7 -15 14 -5 44 6 19 11 35 12 35 2 0 22 -11 46 -24z m1101 -286
c264 -356 253 -339 239 -353 -6 -6 -12 -9 -14 -6 -2 2 -95 128 -207 279 -112
151 -214 290 -227 308 -15 19 -22 40 -19 49 4 10 10 13 15 7 5 -5 101 -133
213 -284z m-397 -144 c18 -8 48 -33 64 -57 30 -40 31 -46 31 -146 l0 -104 -37
-16 c-21 -9 -76 -18 -123 -21 -99 -5 -108 1 -117 70 -3 24 -12 51 -21 61 -13
14 -13 24 -3 57 15 50 51 93 115 136 28 19 52 34 54 34 1 0 18 -6 37 -14z
m874 -495 c72 -96 131 -178 131 -182 0 -11 -32 -21 -40 -12 -4 4 -44 60 -90
123 -46 63 -98 132 -117 153 -22 25 -33 47 -33 68 0 17 4 29 9 27 6 -1 69 -81
140 -177z m-776 152 c2 -5 7 -20 11 -35 5 -24 1 -28 -41 -49 -44 -21 -52 -22
-131 -12 -62 8 -89 15 -99 29 -25 34 -15 39 75 40 52 1 103 7 127 16 49 19 53
20 58 11z m-348 -17 c49 -11 50 -12 61 -61 7 -28 13 -62 13 -77 l1 -27 -47 20
c-80 34 -143 95 -143 138 0 21 46 24 115 7z m-125 -61 c19 -35 69 -71 145
-106 65 -29 70 -34 59 -63 -19 -48 -169 14 -221 91 -35 52 -40 72 -21 91 17
17 23 15 38 -13z m518 -285 c5 -74 6 -139 1 -144 -12 -14 -151 -19 -181 -7
-16 6 -37 25 -47 42 -25 41 -57 165 -66 253 -6 64 -6 68 12 61 10 -4 52 -10
93 -12 64 -4 81 -1 120 19 l45 23 7 -50 c4 -27 11 -111 16 -185z m-590 158
c10 -18 32 -43 50 -55 37 -24 132 -47 168 -40 13 2 24 1 24 -3 0 -18 -111
-148 -131 -153 -11 -3 -31 -2 -44 3 -13 5 -32 6 -43 3 -12 -3 -27 4 -41 18
-18 20 -21 35 -21 115 0 89 8 159 17 150 3 -2 12 -19 21 -38z m2182 -522 l0
-43 -69 -22 c-91 -29 -188 -36 -281 -22 -86 13 -116 37 -98 77 l11 23 38 -20
c22 -11 59 -22 83 -25 52 -8 167 16 246 51 30 13 58 24 63 25 4 0 7 -20 7 -44z
m-1437 -29 c5 -16 6 -31 2 -35 -4 -4 -78 -8 -166 -10 l-159 -3 0 35 c0 34 2
36 34 36 20 0 36 -6 39 -14 3 -8 29 -22 57 -31 46 -15 53 -15 75 -1 13 8 26
25 30 36 5 17 14 21 43 18 29 -2 37 -8 45 -31z"/>
</g>
</svg>
